# Blender v2.79 (sub 0) OBJ File: ''
# www.blender.org
mtllib eclipseproj3.mtl
o Sphere
v 0.000000 -0.707106 0.707107
v -0.000000 -0.707107 -0.707107
v 0.000000 -0.923880 -0.382683
v 0.000000 -0.382683 0.923880
v 0.000000 -1.000000 -0.000000
v 0.000780 -0.000000 0.980785
v 0.000552 0.000552 -0.980785
v -0.000000 -0.382683 -0.923880
v 0.000000 -0.923879 0.382683
v 0.353554 -0.853553 0.382683
v 0.270598 -0.653281 -0.707107
v 0.270598 -0.653281 0.707107
v 0.353553 -0.853553 -0.382683
v 0.146447 -0.353553 0.923880
v 0.382684 -0.923879 -0.000000
v 0.000299 0.000721 0.980785
v -0.000721 -0.000298 -0.980785
v 0.146447 -0.353553 -0.923880
v 0.000299 -0.000721 0.980785
v 0.000721 0.000299 -0.980785
v 0.500000 -0.500000 -0.707107
v 0.500000 -0.500000 0.707107
v 0.653282 -0.653281 -0.382683
v 0.270598 -0.270598 0.923880
v 0.707107 -0.707107 -0.000000
v -0.000552 -0.000551 0.980785
v -0.000299 -0.000721 -0.980785
v 0.270598 -0.270598 -0.923880
v 0.653282 -0.653281 0.382683
v -0.000552 0.000552 0.980785
v 0.000299 -0.000721 -0.980785
v 0.653282 -0.270598 0.707107
v 0.653282 -0.270598 -0.707107
v 0.853554 -0.353553 -0.382683
v 0.353554 -0.146446 0.923880
v 0.923880 -0.382683 -0.000000
v 0.000552 -0.000551 0.980785
v -0.000552 -0.000551 -0.980785
v 0.353554 -0.146446 -0.923880
v 0.853554 -0.353553 0.382683
v -0.000299 -0.000721 0.980785
v -0.000552 0.000552 -0.980785
v 0.707107 0.000000 -0.707107
v 0.707107 -0.000000 0.707107
v 0.923880 0.000000 -0.382683
v 0.382684 -0.000000 0.923880
v 1.000000 0.000000 -0.000000
v -0.000721 0.000299 0.980785
v 0.382684 0.000000 -0.923880
v 0.923880 -0.000000 0.382683
v -0.000299 0.000721 -0.980785
v 0.653282 0.270598 0.707107
v 0.853554 0.353554 -0.382683
v 0.353553 0.146447 0.923880
v 0.923880 0.382684 0.000000
v 0.000552 0.000552 0.980785
v 0.000721 -0.000298 -0.980785
v 0.353554 0.146447 -0.923880
v 0.853554 0.353554 0.382683
v 0.653282 0.270598 -0.707107
v -0.000299 0.000721 0.980785
v -0.000780 0.000000 -0.980785
v 0.270598 0.270598 0.923880
v 0.653282 0.653282 -0.382683
v 0.707107 0.707107 0.000000
v -0.000721 -0.000298 0.980785
v -0.000000 0.000781 -0.980785
v 0.270598 0.270599 -0.923880
v 0.653282 0.653282 0.382683
v 0.500000 0.500000 -0.707107
v 0.500000 0.500000 0.707107
v 0.000721 -0.000298 0.980785
v -0.000721 0.000299 -0.980785
v 0.353553 0.853554 -0.382683
v 0.146447 0.353554 0.923880
v 0.382683 0.923880 0.000000
v 0.000721 0.000299 0.980785
v 0.000552 -0.000551 -0.980785
v 0.146447 0.353554 -0.923880
v 0.353553 0.853554 0.382683
v 0.270598 0.653282 -0.707107
v 0.270598 0.653282 0.707107
v 0.000780 0.000000 -0.980785
v 0.000000 0.382684 0.923880
v -0.000000 1.000000 0.000000
v -0.000000 -0.000780 -0.980785
v -0.000000 0.382684 -0.923880
v -0.000000 0.923880 0.382683
v -0.000000 0.707107 -0.707107
v 0.000000 0.707107 0.707107
v -0.000000 0.923880 -0.382683
v -0.382684 0.923880 0.000000
v -0.146447 0.353554 -0.923880
v -0.353553 0.853554 0.382683
v -0.270598 0.653282 -0.707107
v -0.270598 0.653282 0.707107
v -0.353553 0.853554 -0.382683
v -0.146447 0.353554 0.923880
v -0.000780 -0.000000 0.980785
v -0.707107 0.707107 0.000000
v -0.270598 0.270598 -0.923880
v -0.653281 0.653282 0.382683
v -0.500000 0.500000 -0.707107
v -0.500000 0.500000 0.707107
v -0.653281 0.653282 -0.382683
v -0.270598 0.270598 0.923880
v -0.353553 0.146447 -0.923880
v -0.853553 0.353554 0.382683
v -0.653281 0.270598 -0.707107
v -0.653281 0.270598 0.707107
v -0.853553 0.353554 -0.382683
v -0.353553 0.146447 0.923880
v -0.923880 0.382684 0.000000
v -0.923879 -0.000000 0.382683
v -0.382683 0.000000 -0.923880
v -0.707107 0.000000 -0.707107
v -0.707107 -0.000000 0.707107
v -0.923879 0.000000 -0.382683
v -0.382683 -0.000000 0.923880
v -1.000000 -0.000000 0.000000
v 0.000299 0.000721 -0.980785
v -0.353553 -0.146446 -0.923880
v -0.853553 -0.353553 0.382683
v -0.653281 -0.270598 -0.707107
v -0.653281 -0.270598 0.707107
v -0.853553 -0.353553 -0.382683
v -0.353553 -0.146446 0.923880
v -0.923879 -0.382683 -0.000000
v 0.000000 -0.000780 0.980785
v -0.653281 -0.653281 0.382683
v -0.500000 -0.500000 -0.707107
v -0.500000 -0.500000 0.707107
v -0.653281 -0.653281 -0.382683
v -0.270598 -0.270598 0.923880
v -0.707106 -0.707106 -0.000000
v -0.270598 -0.270598 -0.923880
v 0.000000 0.000781 0.980785
v -0.270598 -0.653281 0.707107
v -0.270598 -0.653281 -0.707107
v -0.353553 -0.853553 -0.382683
v -0.146446 -0.353553 0.923880
v -0.382683 -0.923879 -0.000000
v -0.146447 -0.353553 -0.923880
v -0.353553 -0.853553 0.382683
vt 0.660980 1.124913
vt 0.660980 1.249895
vt 0.468634 1.249895
vt 0.468634 1.124913
vt -0.173649 1.374878
vt 0.018697 1.374878
vt 0.018697 1.499860
vt -0.173649 1.499860
vt 0.168676 1.124913
vt 0.168676 1.249895
vt 0.093686 1.249895
vt 0.093686 1.124913
vt 0.318655 0.999930
vt 0.318655 0.874947
vt 0.393644 0.874947
vt 0.393644 0.999930
vt 0.468634 0.749965
vt 0.468634 0.874947
vt 0.393644 0.749965
vt 0.318655 0.500000
vt 0.318655 0.375017
vt 0.393645 0.375017
vt 0.393645 0.500000
vt 0.318655 0.749965
vt 0.318655 0.000070
vt 0.393645 0.000070
vt 0.393645 0.125052
vt 0.318655 0.125052
vt 0.660980 0.125052
vt 0.660980 0.250035
vt 0.468634 0.250035
vt 0.468634 0.125052
vt 0.243665 0.250035
vt 0.318655 0.250035
vt 0.243665 0.375017
vt 0.093686 -0.124913
vt 0.168676 -0.124913
vt 0.168676 0.000070
vt 0.093686 0.000070
vt 0.468634 0.375017
vt 0.468634 0.500000
vt 0.660980 0.874947
vt 0.660980 0.999930
vt 0.468634 0.999930
vt 0.093686 0.624982
vt 0.093686 0.500000
vt 0.168676 0.500000
vt 0.168676 0.624982
vt 0.393645 0.250035
vt 0.468634 0.624982
vt 0.660980 0.500000
vt 0.660980 0.624982
vt 0.660980 0.749965
vt 0.393645 -0.499860
vt 0.468634 -0.499860
vt 0.468634 -0.374878
vt 0.393645 -0.374878
vt 0.018697 0.125052
vt -0.173649 0.125052
vt -0.173649 0.000070
vt 0.018697 0.000070
vt 0.093686 0.125052
vt 0.093686 0.250035
vt 0.018697 0.250035
vt 0.093686 0.375017
vt 0.168676 0.250035
vt 0.168676 0.375017
vt 0.093686 0.999930
vt 0.168676 0.999930
vt 0.318655 -0.124913
vt 0.243665 0.000070
vt 0.243665 -0.124913
vt 0.468634 0.000070
vt 0.093686 1.374878
vt 0.093686 1.499860
vt 0.243665 0.999930
vt 0.318655 1.124913
vt 0.243665 1.124913
vt 0.093686 0.749965
vt 0.093686 0.874947
vt 0.018697 0.874947
vt 0.018697 0.749965
vt 0.468634 1.374878
vt 0.660980 1.374878
vt 0.660980 1.499861
vt 0.468634 1.499861
vt 0.093686 -0.249895
vt 0.168676 -0.249895
vt 0.318655 -0.374878
vt 0.318655 -0.499860
vt 0.393644 0.624982
vt 0.660980 -0.374878
vt 0.660980 -0.249895
vt 0.468634 -0.249895
vt 0.018697 -0.374878
vt 0.018697 -0.249895
vt -0.173649 -0.249895
vt -0.173649 -0.374878
vt 0.243665 0.125052
vt 0.168676 0.125052
vt -0.173649 0.624982
vt 0.018697 0.624982
vt -0.173649 0.749965
vt -0.173649 -0.124913
vt 0.018697 -0.124913
vt 0.660980 0.000070
vt 0.393644 1.249895
vt 0.393644 1.374878
vt 0.660980 0.375017
vt 0.243665 1.374878
vt 0.243665 1.499861
vt 0.168676 1.499861
vt 0.168676 1.374878
vt 0.318655 -0.249895
vt 0.393645 -0.249895
vt 0.393645 -0.124913
vt 0.393644 1.124913
vt -0.173649 0.250035
vt -0.173649 0.874947
vt 0.318655 1.249895
vt 0.318655 0.624982
vt -0.173649 1.249895
vt 0.018697 1.249895
vt 0.018697 0.999930
vt 0.018697 1.124913
vt 0.243665 -0.249895
vt 0.243665 -0.374878
vt 0.468634 -0.124913
vt 0.660980 -0.124913
vt 0.093686 -0.374878
vt 0.168676 -0.374878
vt -0.173649 0.999930
vt 0.243665 0.874947
vt -0.173649 1.124913
vt 0.243665 0.624982
vt 0.243665 0.749965
vt 0.168676 0.749965
vt 0.168676 0.874947
vt 0.243665 -0.499860
vt 0.018697 0.500000
vt 0.018697 0.375017
vt 0.243665 0.500000
vt 0.243665 1.249895
vt -0.173649 0.500000
vt -0.173649 0.375017
vt 0.318655 1.374878
vt 0.318655 1.499861
vt 0.018697 -0.499860
vt 0.093686 -0.499860
vt 0.393644 1.499861
vt 0.168676 -0.499860
vt -0.173649 -0.499860
vt 0.660980 -0.499860
vn 0.0564 0.1362 0.9891
vn 0.1042 0.1042 0.9891
vn 0.2712 0.2712 0.9235
vn 0.1468 0.3543 0.9235
vn 0.1362 0.0564 -0.9891
vn 0.3543 0.1468 -0.9235
vn 0.3835 0.0000 -0.9235
vn 0.1474 -0.0000 -0.9891
vn 0.3549 0.8567 -0.3744
vn 0.6557 0.6557 -0.3744
vn 0.5083 0.5083 -0.6952
vn 0.2751 0.6641 -0.6952
vn 0.0000 0.9273 0.3744
vn -0.3549 0.8567 0.3744
vn -0.2751 0.6641 0.6952
vn 0.0000 0.7189 0.6952
vn -0.2712 0.2712 0.9235
vn -0.1468 0.3543 0.9235
vn -0.5083 0.5083 0.6952
vn -0.9273 -0.0000 0.3744
vn -0.8567 -0.3549 0.3744
vn -0.6641 -0.2751 0.6952
vn -0.7189 -0.0000 0.6952
vn -0.6557 0.6557 0.3744
vn -0.0000 -0.9273 0.3744
vn -0.0000 -0.7189 0.6952
vn -0.2751 -0.6641 0.6952
vn -0.3549 -0.8567 0.3744
vn -0.0564 -0.1362 0.9891
vn -0.1042 -0.1042 0.9891
vn -0.2712 -0.2712 0.9235
vn -0.1468 -0.3543 0.9235
vn -0.7071 -0.7071 -0.0000
vn -0.6557 -0.6557 0.3744
vn -0.9239 -0.3827 -0.0000
vn 0.2751 -0.6641 -0.6952
vn 0.3549 -0.8567 -0.3744
vn -0.0000 -0.9273 -0.3744
vn 0.0000 -0.7189 -0.6952
vn -0.3543 -0.1468 0.9235
vn -0.3835 -0.0000 0.9235
vn -0.0564 0.1362 0.9891
vn -0.0000 0.1474 0.9891
vn -0.0000 0.3835 0.9235
vn -0.6641 0.2751 -0.6952
vn -0.7189 0.0000 -0.6952
vn -0.9273 -0.0000 -0.3744
vn -0.8567 0.3549 -0.3744
vn -0.5083 -0.5083 0.6952
vn -0.3543 0.1468 0.9235
vn -0.1474 -0.0000 0.9891
vn -0.1362 0.0564 0.9891
vn -0.1042 0.1042 0.9891
vn 0.7189 -0.0000 0.6952
vn 0.3835 0.0000 0.9235
vn 0.3543 -0.1468 0.9235
vn 0.6641 -0.2751 0.6952
vn -0.1468 -0.3543 -0.9235
vn -0.0564 -0.1362 -0.9891
vn 0.0000 -0.1474 -0.9891
vn 0.0000 -0.3835 -0.9235
vn -0.2751 -0.6641 -0.6952
vn -0.5083 -0.5083 -0.6952
vn -0.2712 -0.2712 -0.9235
vn -0.6641 -0.2751 -0.6952
vn -0.6557 -0.6557 -0.3744
vn -0.8567 -0.3549 -0.3744
vn 0.0000 0.7189 -0.6952
vn 0.0000 0.9273 -0.3744
vn 0.3549 -0.8567 0.3744
vn -0.0000 -1.0000 0.0000
vn 0.3827 -0.9239 -0.0000
vn -0.0000 -0.3835 0.9235
vn 0.6641 0.2751 -0.6952
vn 0.7189 0.0000 -0.6952
vn 0.0000 1.0000 0.0000
vn 0.3549 0.8567 0.3744
vn 0.3827 0.9239 0.0000
vn -0.5083 0.5083 -0.6952
vn -0.2751 0.6641 -0.6952
vn -0.1468 0.3543 -0.9235
vn -0.2712 0.2712 -0.9235
vn 0.3543 0.1468 0.9235
vn 0.1362 0.0564 0.9891
vn 0.1474 -0.0000 0.9891
vn 0.5083 -0.5083 -0.6952
vn 0.6557 -0.6557 -0.3744
vn 0.8567 -0.3549 0.3744
vn 0.9273 -0.0000 0.3744
vn -0.6641 0.2751 0.6952
vn 0.1362 -0.0564 0.9891
vn 0.1042 -0.1042 0.9891
vn 0.2712 -0.2712 0.9235
vn 0.3543 -0.1468 -0.9235
vn 0.2712 -0.2712 -0.9235
vn 0.1042 -0.1042 -0.9891
vn 0.1362 -0.0564 -0.9891
vn -0.3827 -0.9239 0.0000
vn -0.3549 -0.8567 -0.3744
vn -0.1362 0.0564 -0.9891
vn -0.3543 0.1468 -0.9235
vn -0.1042 0.1042 -0.9891
vn 0.0564 -0.1362 -0.9891
vn 0.1468 -0.3543 -0.9235
vn 0.0000 -0.1474 0.9891
vn 0.5083 0.5083 0.6952
vn 0.6641 0.2751 0.6952
vn -0.1362 -0.0564 0.9891
vn 0.9239 0.3827 0.0000
vn 1.0000 -0.0000 -0.0000
vn 0.9273 -0.0000 -0.3744
vn 0.8567 0.3549 -0.3744
vn 0.6557 -0.6557 0.3744
vn 0.5083 -0.5083 0.6952
vn 0.2751 -0.6641 0.6952
vn 0.2751 0.6641 0.6952
vn -0.1042 -0.1042 -0.9891
vn -0.0564 0.1362 -0.9891
vn 0.6557 0.6557 0.3744
vn -0.8567 0.3549 0.3744
vn 0.1042 0.1042 -0.9891
vn 0.2712 0.2712 -0.9235
vn -0.0000 0.3835 -0.9235
vn 0.1468 0.3543 -0.9235
vn 0.7071 -0.7071 -0.0000
vn 0.9239 -0.3827 -0.0000
vn 0.1468 -0.3543 0.9235
vn 0.0564 -0.1362 0.9891
vn 0.6641 -0.2751 -0.6952
vn 0.8567 -0.3549 -0.3744
vn -0.0000 0.1474 -0.9891
vn -0.3827 0.9239 0.0000
vn 0.0564 0.1362 -0.9891
vn -0.9239 0.3827 0.0000
vn -0.7071 0.7071 0.0000
vn -0.6557 0.6557 -0.3744
vn -0.3549 0.8567 -0.3744
vn -0.3835 0.0000 -0.9235
vn -0.3543 -0.1468 -0.9235
vn -1.0000 -0.0000 -0.0000
vn 0.7071 0.7071 0.0000
vn -0.1474 -0.0000 -0.9891
vn -0.1362 -0.0564 -0.9891
vn 0.8567 0.3549 0.3744
usemtl None
s 1
f 16/1/1 56/2/2 63/3/3 75/4/4
f 20/5/5 58/6/6 49/7/7 83/8/8
f 74/9/9 64/10/10 70/11/11 81/12/12
f 88/13/13 94/14/14 96/15/15 90/16/16
f 106/17/17 98/18/18 96/15/15 104/19/19
f 114/20/20 123/21/21 125/22/22 117/23/23
f 94/14/14 102/24/24 104/19/19 96/15/15
f 9/25/25 1/26/26 138/27/27 144/28/28
f 41/29/29 26/30/30 134/31/31 141/32/32
f 135/33/33 130/34/34 123/21/21 128/35/35
f 11/36/36 13/37/37 3/38/38 2/39/39
f 125/22/22 127/40/40 119/41/41 117/23/23
f 98/18/18 61/42/42 137/43/43 84/44/44
f 109/45/45 116/46/46 118/47/47 111/48/48
f 132/49/49 138/27/27 141/32/32 134/31/31
f 112/50/50 119/41/41 99/51/51 48/52/52
f 48/52/52 30/53/53 106/17/17 112/50/50
f 44/54/54 46/55/55 35/56/56 32/57/57
f 143/58/58 27/59/59 86/60/60 8/61/61
f 139/62/62 131/63/63 136/64/64 143/58/58
f 124/65/65 131/63/63 133/66/66 126/67/67
f 89/68/68 91/69/69 74/9/9 81/12/12
f 10/70/70 9/25/25 5/71/71 15/72/72
f 75/4/4 84/44/44 137/43/43 16/1/1
f 1/26/26 4/73/73 141/32/32 138/27/27
f 58/6/6 60/74/74 43/75/75 49/7/7
f 85/76/76 88/13/13 80/77/77 76/78/78
f 103/79/79 95/80/80 93/81/81 101/82/82
f 54/83/83 77/84/84 6/85/85 46/86/55
f 143/58/58 8/61/61 2/39/39 139/62/62
f 21/87/86 23/88/87 13/37/37 11/36/36
f 44/54/54 32/57/57 40/89/88 50/90/89
f 110/91/90 112/50/50 106/17/17 104/19/19
f 72/92/91 37/93/92 24/94/93 35/56/56
f 39/95/94 28/96/95 78/97/96 57/98/97
f 142/99/98 144/28/28 130/34/34 135/33/33
f 2/39/39 3/38/38 140/100/99 139/62/62
f 73/101/100 107/102/101 101/82/82 42/103/102
f 8/61/61 86/60/60 31/104/103 18/105/104
f 141/32/32 4/73/73 129/106/105 41/29/29
f 71/107/106 63/3/3 54/83/83 52/108/107
f 66/109/108 99/51/51 119/41/41 127/40/40
f 55/110/109 47/111/110 45/112/111 53/113/112
f 10/70/70 29/114/113 22/115/114 12/116/115
f 138/27/27 132/49/49 130/34/34 144/28/28
f 98/18/18 106/17/17 30/53/53 61/42/42
f 90/16/16 84/44/44 75/4/4 82/117/116
f 38/118/117 27/59/59 143/58/58 136/64/64
f 51/119/118 42/103/102 101/82/82 93/81/81
f 69/120/119 80/77/77 82/117/116 71/107/106
f 114/20/20 117/23/23 110/91/90 108/121/120
f 7/122/121 68/123/122 58/6/6 20/5/5
f 87/124/123 89/68/68 81/12/12 79/125/124
f 25/126/125 29/114/113 10/70/70 15/72/72
f 124/65/65 126/67/67 118/47/47 116/46/46
f 36/127/126 40/89/88 29/114/113 25/126/125
f 12/116/115 1/26/26 9/25/25 10/70/70
f 28/96/95 18/105/104 31/104/103 78/97/96
f 14/128/127 19/129/128 129/106/105 4/73/73
f 130/34/34 132/49/49 125/22/22 123/21/21
f 60/74/74 70/11/11 64/10/10 53/113/112
f 21/87/86 33/130/129 34/131/130 23/88/87
f 51/119/118 93/81/81 87/124/123 67/132/131
f 94/14/14 88/13/13 85/76/76 92/133/132
f 117/23/23 119/41/41 112/50/50 110/91/90
f 121/134/133 67/132/131 87/124/123 79/125/124
f 113/135/134 100/136/135 105/137/136 111/48/48
f 13/37/37 23/88/87 25/126/125 15/72/72
f 103/79/79 105/137/136 97/138/137 95/80/80
f 91/69/69 85/76/76 76/78/78 74/9/9
f 132/49/49 134/31/31 127/40/40 125/22/22
f 134/31/31 26/30/30 66/109/108 127/40/40
f 47/139/110 50/90/89 40/89/88 36/127/126
f 68/123/122 70/11/11 60/74/74 58/6/6
f 115/140/138 122/141/139 124/65/65 116/46/46
f 29/114/113 40/89/88 32/57/57 22/115/114
f 140/100/99 133/66/66 131/63/63 139/62/62
f 98/18/18 84/44/44 90/16/16 96/15/15
f 128/35/35 123/21/21 114/20/20 120/142/140
f 95/80/80 97/138/137 91/69/69 89/68/68
f 76/78/78 80/77/77 69/120/119 65/143/141
f 3/38/38 5/71/71 142/99/98 140/100/99
f 53/113/112 45/112/111 43/75/75 60/74/74
f 103/79/79 109/45/45 111/48/48 105/137/136
f 107/102/101 109/45/45 103/79/79 101/82/82
f 122/141/139 115/140/138 62/144/142 17/145/143
f 100/136/135 102/24/24 94/14/14 92/133/132
f 55/110/109 59/146/144 50/147/89 47/111/110
f 120/142/140 114/20/20 108/121/120 113/135/134
f 35/56/56 24/94/93 22/115/114 32/57/57
f 11/36/36 2/39/39 8/61/61 18/105/104
f 14/128/127 4/73/73 1/26/26 12/116/115
f 39/95/94 33/130/129 21/87/86 28/96/95
f 39/95/94 49/148/7 43/149/75 33/130/129
f 14/128/127 24/94/93 37/93/92 19/129/128
f 52/108/107 54/83/83 46/86/55 44/150/54
f 136/64/64 131/63/63 124/65/65 122/141/139
f 33/130/129 43/149/75 45/151/111 34/131/130
f 97/138/137 105/137/136 100/136/135 92/133/132
f 82/117/116 75/4/4 63/3/3 71/107/106
f 140/100/99 142/99/98 135/33/33 133/66/66
f 54/83/83 63/3/3 56/2/2 77/84/84
f 107/102/101 115/140/138 116/46/46 109/45/45
f 118/47/47 126/67/67 128/35/35 120/142/140
f 38/118/117 136/64/64 122/141/139 17/145/143
f 47/139/110 36/127/126 34/131/130 45/151/111
f 13/37/37 15/72/72 5/71/71 3/38/38
f 97/138/137 92/133/132 85/76/76 91/69/69
f 115/140/138 107/102/101 73/101/100 62/144/142
f 88/13/13 90/16/16 82/117/116 80/77/77
f 39/95/94 57/98/97 83/152/8 49/148/7
f 74/9/9 76/78/78 65/143/141 64/10/10
f 133/66/66 135/33/33 128/35/35 126/67/67
f 28/96/95 21/87/86 11/36/36 18/105/104
f 81/12/12 70/11/11 68/123/122 79/125/124
f 118/47/47 120/142/140 113/135/134 111/48/48
f 55/110/109 65/143/141 69/120/119 59/146/144
f 6/153/85 72/92/91 35/56/56 46/55/55
f 52/108/107 44/150/54 50/147/89 59/146/144
f 87/124/123 93/81/81 95/80/80 89/68/68
f 53/113/112 64/10/10 65/143/141 55/110/109
f 22/115/114 24/94/93 14/128/127 12/116/115
f 23/88/87 34/131/130 36/127/126 25/126/125
f 71/107/106 52/108/107 59/146/144 69/120/119
f 108/121/120 110/91/90 104/19/19 102/24/24
f 121/134/133 79/125/124 68/123/122 7/122/121
f 100/136/135 113/135/134 108/121/120 102/24/24
f 9/25/25 144/28/28 142/99/98 5/71/71
